<svg version="1.2" xmlns="http://www.w3.org/2000/svg" viewBox="0 0 76 83" width="76" height="83">

	<path fill="#F6D663" class="s0" d="m73.6 17.9v51.7c0 5.8-4.7 10.5-10.5 10.5h-50.2c-5.8 0-10.5-4.7-10.5-10.5v-51.7c0-5.8 4.7-10.5 10.5-10.5h3.1v-3c0-1.4 1.1-2.5 2.5-2.5 1.4 0 2.5 1.1 2.5 2.5v3h14.5v-3c0-1.4 1.1-2.5 2.5-2.5 1.4 0 2.5 1.1 2.5 2.5v3h14.5v-3c0-1.4 1.1-2.5 2.5-2.5 1.4 0 2.5 1.1 2.5 2.5v3h3.1c5.8 0 10.5 4.7 10.5 10.5zm-5 0c0-3.1-2.4-5.5-5.5-5.5h-3.1v3.7c0 1.3-1.1 2.5-2.5 2.5-1.4 0-2.5-1.2-2.5-2.5v-3.7h-14.5v3.7c0 1.3-1.1 2.5-2.5 2.5-1.4 0-2.5-1.2-2.5-2.5v-3.7h-14.5v3.7c0 1.3-1.1 2.5-2.5 2.5-1.4 0-2.5-1.2-2.5-2.5v-3.7h-3.1c-3.1 0-5.5 2.4-5.5 5.5v51.7c0 3.1 2.4 5.5 5.5 5.5h50.2c3.1 0 5.5-2.4 5.5-5.5zm-12.8 15.3c0.7 1.2 0.2 2.7-1 3.3-11.1 6.1-19 18-19.1 18.2-0.5 0.7-1.2 1.1-2.1 1.1-0.9 0-1.7-0.5-2.1-1.2-2.6-4.2-5.9-5.8-5.9-5.8-1.2-0.6-1.8-2.1-1.2-3.3 0.6-1.3 2-1.8 3.3-1.3 0.1 0.1 3 1.4 5.9 4.8 3.3-4.2 10-12.1 18.8-16.8 1.2-0.7 2.8-0.3 3.4 1z"/>
</svg>