<svg version="1.2" xmlns="http://www.w3.org/2000/svg" viewBox="0 0 89 77" width="89" height="77">

	<path fill="#F6D663" class="s0" d="m10.7 63.1h14.4l9 9.7c0.4 0.5 1 0.7 1.6 0.7 0.5 0 1.1-0.2 1.5-0.7l9.1-9.7h14.4c4.6 0 8.3-3.8 8.3-8.4v-15c0-1.1-0.9-2-2.1-2-1.1 0-2.1 0.9-2.1 2v15c0 2.3-1.8 4.2-4.1 4.2h-15.3c-0.6 0-1.2 0.3-1.5 0.7l-8.2 8.8-8.2-8.8c-0.4-0.4-1-0.7-1.5-0.7h-15.3c-2.3 0-4.2-1.8-4.2-4.2v-33.3c0-2.3 1.9-4.2 4.2-4.2h40c1.1 0 2.1-0.9 2.1-2 0-1.2-1-2.1-2.1-2.1h-40c-4.6 0-8.4 3.7-8.4 8.3v33.3c0 4.6 3.8 8.4 8.4 8.4z"/>
	<path fill="#F6D663" class="s0" d="m85.7 18.3c0 0.9-0.7 1.8-1.6 2-8.3 2.3-9.8 3.8-12 12.1-0.3 0.9-1.1 1.5-2.1 1.5-0.9 0-1.7-0.6-2-1.5-2.3-8.3-3.7-9.8-12.1-12.1-0.9-0.2-1.5-1.1-1.5-2 0-0.9 0.6-1.8 1.5-2 8.4-2.3 9.8-3.8 12.1-12.1 0.3-0.9 1.1-1.5 2-1.5 1 0 1.8 0.6 2.1 1.5 2.2 8.3 3.7 9.8 12 12.1 0.9 0.2 1.6 1.1 1.6 2zm-8.5 0c-3.6-1.6-5.6-3.6-7.2-7.1-1.5 3.5-3.6 5.5-7.1 7.1 3.5 1.6 5.6 3.6 7.1 7.1 1.6-3.5 3.6-5.5 7.2-7.1z"/>
	<path fill="#F6D663" class="s0" d="m46.6 36.1c0.9 0.2 1.6 1 1.6 2 0 0.9-0.7 1.7-1.6 2-6.2 1.7-7.2 2.7-8.9 9-0.3 0.9-1.1 1.5-2 1.5-1 0-1.8-0.6-2-1.5-1.8-6.3-2.8-7.3-9-9-0.9-0.3-1.5-1.1-1.5-2 0-1 0.6-1.8 1.5-2 6.2-1.7 7.2-2.8 9-9 0.2-0.9 1-1.5 2-1.5 0.9 0 1.7 0.6 2 1.5 1.7 6.2 2.7 7.3 8.9 9zm-6.5 2c-2-1.1-3.4-2.4-4.4-4.4-1.1 2-2.4 3.3-4.4 4.4 2 1 3.3 2.4 4.4 4.4 1-2 2.4-3.4 4.4-4.4z"/>
		
</svg>