<svg version="1.2" xmlns="http://www.w3.org/2000/svg" viewBox="0 0 80 79" width="80" height="79">

	<path fill="#F6D663" class="s0" d="m60.5 3.8c0.1-0.7 0.7-1.3 1.4-1.3 0.7 0 1.2 0.6 1.3 1.3 0.6 4.6 4.3 8.2 8.9 8.8 0.7 0.1 1.2 0.7 1.2 1.4 0 0.7-0.5 1.2-1.2 1.3-4.6 0.6-8.3 4.2-8.9 8.8-0.1 0.7-0.6 1.3-1.3 1.3-0.7 0-1.3-0.6-1.4-1.3-0.6-4.6-4.2-8.2-8.8-8.8-0.7-0.1-1.3-0.6-1.3-1.3 0-0.7 0.6-1.3 1.3-1.4 4.6-0.6 8.2-4.2 8.8-8.8z"/>
	<path fill="#F6D663"  class="s0" d="m69.1 30.5c0.1-0.5 0.5-0.9 1-0.9 0.5 0 0.9 0.4 1 0.9 0.4 2.7 2.7 4.9 5.5 5.3 0.5 0 0.9 0.4 0.9 1 0 0.5-0.4 0.9-0.9 1-2.9 0.4-5.1 2.6-5.5 5.4-0.1 0.6-0.5 1-1 1-0.5 0-0.9-0.4-1-1-0.4-2.7-2.5-5-5.3-5.4-0.5-0.1-0.9-0.5-0.9-1 0-0.6 0.4-1 0.9-1 2.8-0.4 4.9-2.6 5.3-5.3z"/>
	<path fill="#F6D663" class="s0" d="m70.5 68.4c1.6 1.6 1.6 4.1 0.1 5.8l-0.1 0.1c-1.6 1.7-4.2 1.7-6.1 0.2-3.2-2.6-4.6-2-8.3 1.5-0.8 0.8-2.2 0.8-3-0.1l-6.5-6.8c-0.8-0.8-0.8-2.1 0-2.9l3.4-3.3c0.8-0.9 0.8-2.2-0.1-3l-12.3-11.9c-0.7-0.7-1.8-0.8-2.6-0.3-3.2 1.7-6.8 2.7-10.6 2.7-12.1 0-21.9-9.8-21.9-21.9 0-12 9.8-21.8 21.9-21.8 12.1 0 21.9 9.8 21.9 21.8 0 3.9-1 7.5-2.8 10.6-0.4 0.9-0.3 2 0.4 2.7zm-46.2-26.4c7.5 0 13.6-6 13.6-13.5 0-7.5-6.1-13.6-13.6-13.6-7.5 0-13.5 6.1-13.5 13.6 0 7.5 6 13.5 13.5 13.5z"/>

</svg>