<svg version="1.2" xmlns="http://www.w3.org/2000/svg" viewBox="0 0 72 73" width="72" height="73">
  <title>noun-responsive-7274769-svg</title>
  <path fill="#F6D663" fill-rule="evenodd" class="s0" d="m6 57v-38c0-5.5 4.5-10 10-10h20c5.5 0 10 4.5 10 10v9h10c5.5 0 10 4.5 10 10v19c0 5.5-4.5 10-10 10h-40c-5.5 0-10-4.5-10-10zm38 6h12c3.3 0 6-2.7 6-6v-19c0-3.3-2.7-6-6-6h-10v25c0 2.3-0.8 4.3-2 6zm-34-6c0 3.3 2.7 6 6 6h9c-1.2-1.7-2-3.8-2-6v-19c0-5.5 4.5-10 10-10h9v-9c0-3.3-2.7-6-6-6h-20c-3.3 0-6 2.7-6 6zm32-25h-9c-3.3 0-6 2.7-6 6v19c0 3.3 2.7 6 6 6h3c3.3 0 6-2.7 6-6z"/>
</svg>
