<svg version="1.2" xmlns="http://www.w3.org/2000/svg" viewBox="0 0 70 90" width="70" height="90">

	<path fill="#F6D663" class="s0" d="m2.8 48.5v-31.6c0-2 1.5-3.5 3.4-3.6 10.2-0.3 20.1-4.3 27.5-10.8 0.7-0.7 1.9-0.7 2.6 0 7.3 6.5 17.3 10.5 27.5 10.8 1.9 0.1 3.4 1.6 3.4 3.6v31.6c0 18.7-13.4 34.5-31.9 37.5q-0.1 0-0.3 0-0.2 0-0.3 0c-18.5-3-31.9-18.8-31.9-37.5zm4-31.2v8h56.4v-8c-10.3-0.4-20.4-4.3-28.2-10.7-7.8 6.4-17.9 10.2-28.2 10.7zm0 31.2c0 16.6 11.8 30.7 28.2 33.5 16.4-2.8 28.2-16.9 28.2-33.5v-19.2h-56.4zm18.9-6.8c0.5-4.2 4-7.6 8.2-8.1 2.7-0.3 5.4 0.6 7.4 2.4 2 1.7 3.1 4.3 3.1 7 0 3.2-1.6 6.1-4.3 7.9v5.2c0 2.8-2.3 5.1-5.1 5.1-2.8 0-5.1-2.3-5.1-5.1v-5.2c-3-2-4.7-5.5-4.2-9.2zm7 6.2c0.7 0.3 1.2 1 1.2 1.8v6.4c0 0.6 0.5 1.1 1.1 1.1 0.6 0 1.1-0.5 1.1-1.1v-6.4c0-0.8 0.5-1.5 1.2-1.8 1.9-0.9 3.1-2.8 3.1-4.9 0-1.6-0.6-3-1.8-4.1-1-0.9-2.3-1.3-3.6-1.3q-0.3 0-0.6 0c-2.5 0.3-4.4 2.2-4.8 4.6-0.3 2.4 1 4.7 3.1 5.7z"/>
	
</svg>