<svg version="1.2"  xmlns="http://www.w3.org/2000/svg" viewBox="0 0 96 98" width="96" height="98">
	<path fill="#F6D663" strokeWidth="1px" class="s0" d="m48 3c25.4 0 46 20.6 46 46 0 25.4-20.6 46-46 46-25.4 0-46-20.6-46-46 0-25.4 20.6-46 46-46zm25.3 20.7c-14-14-36.6-14-50.6 0-14 14-14 36.6 0 50.6 14 14 36.6 14 50.6 0 14-14 14-36.6 0-50.6zm-25.3-5.3c2.8 0 5.1 2.3 5.1 5.1v22.5l13.9 8.1c2.5 1.4 3.3 4.5 1.9 7-1.4 2.4-4.5 3.2-7 1.8l-16.5-9.5c-1.5-0.9-2.5-2.5-2.5-4.4v-25.5c0-2.8 2.3-5.1 5.1-5.1z"/>

</svg>